# MagicaVoxel @ Ephtracy

# material
mtllib fullness.mtl
usemtl palette

# normals
vn -1 0 0
vn 1 0 0
vn 0 0 1
vn 0 0 -1
vn 0 -1 0
vn 0 1 0

# texcoords
vt 0.146484 0.5
vt 0.224609 0.5
vt 0.291016 0.5
vt 0.392578 0.5
vt 0.427734 0.5
vt 0.541016 0.5

# verts
v -5 1 0.5
v -5 1 -0.5
v -5 2 0.5
v -5 2 -0.5
v -5 3 0.5
v -5 3 -0.5
v -5 4 0.5
v -5 4 -0.5
v -5 5 0.5
v -5 5 -0.5
v -5 6 0.5
v -5 6 -0.5
v -5 7 0.5
v -5 7 -0.5
v -4 0 0.5
v -4 0 -0.5
v -4 1 0.5
v -4 1 -0.5
v -4 7 0.5
v -4 7 -0.5
v -4 8 0.5
v -4 8 -0.5
v -3 8 0.5
v -3 8 -0.5
v -3 9 0.5
v -3 9 -0.5
v 3 8 0.5
v 3 8 -0.5
v 3 9 0.5
v 3 9 -0.5
v 4 0 0.5
v 4 0 -0.5
v 4 1 0.5
v 4 1 -0.5
v 4 7 0.5
v 4 7 -0.5
v 4 8 0.5
v 4 8 -0.5
v 5 1 0.5
v 5 1 -0.5
v 5 2 0.5
v 5 2 -0.5
v 5 3 0.5
v 5 3 -0.5
v 5 4 0.5
v 5 4 -0.5
v 5 5 0.5
v 5 5 -0.5
v 5 6 0.5
v 5 6 -0.5
v 5 7 0.5
v 5 7 -0.5
v -5 1 0.5
v -5 2 0.5
v -5 3 0.5
v -5 4 0.5
v -5 5 0.5
v -5 6 0.5
v -5 7 0.5
v -4 0 0.5
v -4 1 0.5
v -4 6 0.5
v -4 7 0.5
v -4 8 0.5
v -3 6 0.5
v -3 7 0.5
v -3 8 0.5
v -3 9 0.5
v -2 6 0.5
v -2 7 0.5
v -2 8 0.5
v -1 2 0.5
v -1 3 0.5
v -1 6 0.5
v -1 7 0.5
v -1 8 0.5
v -1 9 0.5
v 0 7 0.5
v 0 8 0.5
v 0 9 0.5
v 1 2 0.5
v 1 3 0.5
v 1 4 0.5
v 1 5 0.5
v 1 6 0.5
v 1 7 0.5
v 1 8 0.5
v 2 6 0.5
v 2 7 0.5
v 2 8 0.5
v 2 9 0.5
v 3 4 0.5
v 3 5 0.5
v 3 6 0.5
v 3 7 0.5
v 3 8 0.5
v 3 9 0.5
v 4 0 0.5
v 4 1 0.5
v 4 6 0.5
v 4 7 0.5
v 4 8 0.5
v 5 1 0.5
v 5 2 0.5
v 5 3 0.5
v 5 4 0.5
v 5 5 0.5
v 5 6 0.5
v 5 7 0.5
v -5 1 -0.5
v -5 2 -0.5
v -5 3 -0.5
v -5 4 -0.5
v -5 5 -0.5
v -5 6 -0.5
v -5 7 -0.5
v -4 0 -0.5
v -4 1 -0.5
v -4 6 -0.5
v -4 7 -0.5
v -4 8 -0.5
v -3 6 -0.5
v -3 7 -0.5
v -3 8 -0.5
v -3 9 -0.5
v -2 6 -0.5
v -2 7 -0.5
v -2 8 -0.5
v -1 2 -0.5
v -1 3 -0.5
v -1 6 -0.5
v -1 7 -0.5
v -1 8 -0.5
v -1 9 -0.5
v 0 7 -0.5
v 0 8 -0.5
v 0 9 -0.5
v 1 2 -0.5
v 1 3 -0.5
v 1 4 -0.5
v 1 5 -0.5
v 1 6 -0.5
v 1 7 -0.5
v 1 8 -0.5
v 2 6 -0.5
v 2 7 -0.5
v 2 8 -0.5
v 2 9 -0.5
v 3 4 -0.5
v 3 5 -0.5
v 3 6 -0.5
v 3 7 -0.5
v 3 8 -0.5
v 3 9 -0.5
v 4 0 -0.5
v 4 1 -0.5
v 4 6 -0.5
v 4 7 -0.5
v 4 8 -0.5
v 5 1 -0.5
v 5 2 -0.5
v 5 3 -0.5
v 5 4 -0.5
v 5 5 -0.5
v 5 6 -0.5
v 5 7 -0.5
v -4 0 0.5
v 4 0 0.5
v -4 0 -0.5
v 4 0 -0.5
v -5 1 0.5
v -4 1 0.5
v 4 1 0.5
v 5 1 0.5
v -5 1 -0.5
v -4 1 -0.5
v 4 1 -0.5
v 5 1 -0.5
v -5 7 0.5
v -4 7 0.5
v 4 7 0.5
v 5 7 0.5
v -5 7 -0.5
v -4 7 -0.5
v 4 7 -0.5
v 5 7 -0.5
v -4 8 0.5
v -3 8 0.5
v 3 8 0.5
v 4 8 0.5
v -4 8 -0.5
v -3 8 -0.5
v 3 8 -0.5
v 4 8 -0.5
v -3 9 0.5
v -1 9 0.5
v 0 9 0.5
v 2 9 0.5
v 3 9 0.5
v -3 9 -0.5
v -1 9 -0.5
v 0 9 -0.5
v 2 9 -0.5
v 3 9 -0.5

# faces
f 3/3/1 2/3/1 1/3/1
f 4/3/1 2/3/1 3/3/1
f 5/2/1 4/2/1 3/2/1
f 6/2/1 4/2/1 5/2/1
f 7/5/1 6/5/1 5/5/1
f 8/5/1 6/5/1 7/5/1
f 9/1/1 8/1/1 7/1/1
f 10/1/1 8/1/1 9/1/1
f 11/6/1 10/6/1 9/6/1
f 12/6/1 10/6/1 11/6/1
f 13/3/1 12/3/1 11/3/1
f 14/3/1 12/3/1 13/3/1
f 17/3/1 16/3/1 15/3/1
f 18/3/1 16/3/1 17/3/1
f 21/3/1 20/3/1 19/3/1
f 22/3/1 20/3/1 21/3/1
f 25/3/1 24/3/1 23/3/1
f 26/3/1 24/3/1 25/3/1
f 27/4/2 28/4/2 29/4/2
f 29/4/2 28/4/2 30/4/2
f 31/3/2 32/3/2 33/3/2
f 33/3/2 32/3/2 34/3/2
f 35/3/2 36/3/2 37/3/2
f 37/3/2 36/3/2 38/3/2
f 39/3/2 40/3/2 41/3/2
f 41/3/2 40/3/2 42/3/2
f 41/2/2 42/2/2 43/2/2
f 43/2/2 42/2/2 44/2/2
f 43/5/2 44/5/2 45/5/2
f 45/5/2 44/5/2 46/5/2
f 45/1/2 46/1/2 47/1/2
f 47/1/2 46/1/2 48/1/2
f 47/6/2 48/6/2 49/6/2
f 49/6/2 48/6/2 50/6/2
f 49/3/2 50/3/2 51/3/2
f 51/3/2 50/3/2 52/3/2
f 61/3/3 54/3/3 53/3/3
f 62/3/3 59/3/3 58/3/3
f 62/6/3 58/6/3 57/6/3
f 63/3/3 59/3/3 62/3/3
f 65/6/3 62/6/3 57/6/3
f 65/4/3 63/4/3 62/4/3
f 66/3/3 64/3/3 63/3/3
f 66/4/3 63/4/3 65/4/3
f 67/3/3 64/3/3 66/3/3
f 69/6/3 65/6/3 57/6/3
f 69/3/3 66/3/3 65/3/3
f 70/4/3 67/4/3 66/4/3
f 70/3/3 66/3/3 69/3/3
f 71/3/3 68/3/3 67/3/3
f 71/4/3 67/4/3 70/4/3
f 72/3/3 61/3/3 60/3/3
f 72/2/3 55/2/3 54/2/3
f 72/3/3 54/3/3 61/3/3
f 73/5/3 56/5/3 55/5/3
f 73/2/3 55/2/3 72/2/3
f 74/6/3 69/6/3 57/6/3
f 74/4/3 70/4/3 69/4/3
f 75/3/3 71/3/3 70/3/3
f 75/4/3 70/4/3 74/4/3
f 76/3/3 68/3/3 71/3/3
f 76/3/3 71/3/3 75/3/3
f 77/3/3 68/3/3 76/3/3
f 78/3/3 75/3/3 74/3/3
f 78/3/3 76/3/3 75/3/3
f 79/4/3 77/4/3 76/4/3
f 79/3/3 76/3/3 78/3/3
f 80/4/3 77/4/3 79/4/3
f 81/3/3 72/3/3 60/3/3
f 81/5/3 73/5/3 72/5/3
f 82/5/3 56/5/3 73/5/3
f 82/5/3 73/5/3 81/5/3
f 83/1/3 57/1/3 56/1/3
f 83/5/3 56/5/3 82/5/3
f 84/6/3 74/6/3 57/6/3
f 84/1/3 57/1/3 83/1/3
f 85/3/3 78/3/3 74/3/3
f 85/6/3 74/6/3 84/6/3
f 86/4/3 79/4/3 78/4/3
f 86/3/3 78/3/3 85/3/3
f 87/3/3 80/3/3 79/3/3
f 87/4/3 79/4/3 86/4/3
f 88/4/3 86/4/3 85/4/3
f 88/6/3 84/6/3 83/6/3
f 88/6/3 85/6/3 84/6/3
f 89/3/3 87/3/3 86/3/3
f 89/4/3 86/4/3 88/4/3
f 90/3/3 80/3/3 87/3/3
f 90/3/3 87/3/3 89/3/3
f 91/3/3 80/3/3 90/3/3
f 92/5/3 83/5/3 82/5/3
f 92/6/3 88/6/3 83/6/3
f 93/6/3 88/6/3 92/6/3
f 94/3/3 89/3/3 88/3/3
f 94/6/3 88/6/3 93/6/3
f 94/3/3 90/3/3 89/3/3
f 95/3/3 90/3/3 94/3/3
f 96/4/3 91/4/3 90/4/3
f 96/3/3 90/3/3 95/3/3
f 97/4/3 91/4/3 96/4/3
f 98/3/3 81/3/3 60/3/3
f 99/3/3 81/3/3 98/3/3
f 100/4/3 95/4/3 94/4/3
f 100/6/3 94/6/3 93/6/3
f 101/3/3 96/3/3 95/3/3
f 101/4/3 95/4/3 100/4/3
f 102/3/3 96/3/3 101/3/3
f 103/3/3 81/3/3 99/3/3
f 104/2/3 82/2/3 81/2/3
f 104/3/3 81/3/3 103/3/3
f 105/5/3 92/5/3 82/5/3
f 105/2/3 82/2/3 104/2/3
f 106/1/3 93/1/3 92/1/3
f 106/5/3 92/5/3 105/5/3
f 107/6/3 100/6/3 93/6/3
f 107/1/3 93/1/3 106/1/3
f 108/3/3 101/3/3 100/3/3
f 108/6/3 100/6/3 107/6/3
f 109/3/3 101/3/3 108/3/3
f 110/3/4 111/3/4 118/3/4
f 115/3/4 116/3/4 119/3/4
f 114/6/4 115/6/4 119/6/4
f 119/3/4 116/3/4 120/3/4
f 114/6/4 119/6/4 122/6/4
f 119/4/4 120/4/4 122/4/4
f 120/3/4 121/3/4 123/3/4
f 122/4/4 120/4/4 123/4/4
f 123/3/4 121/3/4 124/3/4
f 114/6/4 122/6/4 126/6/4
f 122/3/4 123/3/4 126/3/4
f 123/4/4 124/4/4 127/4/4
f 126/3/4 123/3/4 127/3/4
f 124/3/4 125/3/4 128/3/4
f 127/4/4 124/4/4 128/4/4
f 117/3/4 118/3/4 129/3/4
f 111/2/4 112/2/4 129/2/4
f 118/3/4 111/3/4 129/3/4
f 112/5/4 113/5/4 130/5/4
f 129/2/4 112/2/4 130/2/4
f 114/6/4 126/6/4 131/6/4
f 126/4/4 127/4/4 131/4/4
f 127/3/4 128/3/4 132/3/4
f 131/4/4 127/4/4 132/4/4
f 128/3/4 125/3/4 133/3/4
f 132/3/4 128/3/4 133/3/4
f 133/3/4 125/3/4 134/3/4
f 131/3/4 132/3/4 135/3/4
f 132/3/4 133/3/4 135/3/4
f 133/4/4 134/4/4 136/4/4
f 135/3/4 133/3/4 136/3/4
f 136/4/4 134/4/4 137/4/4
f 117/3/4 129/3/4 138/3/4
f 129/5/4 130/5/4 138/5/4
f 130/5/4 113/5/4 139/5/4
f 138/5/4 130/5/4 139/5/4
f 113/1/4 114/1/4 140/1/4
f 139/5/4 113/5/4 140/5/4
f 114/6/4 131/6/4 141/6/4
f 140/1/4 114/1/4 141/1/4
f 131/3/4 135/3/4 142/3/4
f 141/6/4 131/6/4 142/6/4
f 135/4/4 136/4/4 143/4/4
f 142/3/4 135/3/4 143/3/4
f 136/3/4 137/3/4 144/3/4
f 143/4/4 136/4/4 144/4/4
f 142/4/4 143/4/4 145/4/4
f 140/6/4 141/6/4 145/6/4
f 141/6/4 142/6/4 145/6/4
f 143/3/4 144/3/4 146/3/4
f 145/4/4 143/4/4 146/4/4
f 144/3/4 137/3/4 147/3/4
f 146/3/4 144/3/4 147/3/4
f 147/3/4 137/3/4 148/3/4
f 139/5/4 140/5/4 149/5/4
f 140/6/4 145/6/4 149/6/4
f 149/6/4 145/6/4 150/6/4
f 145/3/4 146/3/4 151/3/4
f 150/6/4 145/6/4 151/6/4
f 146/3/4 147/3/4 151/3/4
f 151/3/4 147/3/4 152/3/4
f 147/4/4 148/4/4 153/4/4
f 152/3/4 147/3/4 153/3/4
f 153/4/4 148/4/4 154/4/4
f 117/3/4 138/3/4 155/3/4
f 155/3/4 138/3/4 156/3/4
f 151/4/4 152/4/4 157/4/4
f 150/6/4 151/6/4 157/6/4
f 152/3/4 153/3/4 158/3/4
f 157/4/4 152/4/4 158/4/4
f 158/3/4 153/3/4 159/3/4
f 156/3/4 138/3/4 160/3/4
f 138/2/4 139/2/4 161/2/4
f 160/3/4 138/3/4 161/3/4
f 139/5/4 149/5/4 162/5/4
f 161/2/4 139/2/4 162/2/4
f 149/1/4 150/1/4 163/1/4
f 162/5/4 149/5/4 163/5/4
f 150/6/4 157/6/4 164/6/4
f 163/1/4 150/1/4 164/1/4
f 157/3/4 158/3/4 165/3/4
f 164/6/4 157/6/4 165/6/4
f 165/3/4 158/3/4 166/3/4
f 169/3/5 168/3/5 167/3/5
f 170/3/5 168/3/5 169/3/5
f 175/3/5 172/3/5 171/3/5
f 176/3/5 172/3/5 175/3/5
f 177/3/5 174/3/5 173/3/5
f 178/3/5 174/3/5 177/3/5
f 179/3/6 180/3/6 183/3/6
f 183/3/6 180/3/6 184/3/6
f 181/3/6 182/3/6 185/3/6
f 185/3/6 182/3/6 186/3/6
f 187/3/6 188/3/6 191/3/6
f 191/3/6 188/3/6 192/3/6
f 189/3/6 190/3/6 193/3/6
f 193/3/6 190/3/6 194/3/6
f 195/3/6 196/3/6 200/3/6
f 196/4/6 197/4/6 201/4/6
f 200/3/6 196/3/6 201/3/6
f 197/3/6 198/3/6 202/3/6
f 201/4/6 197/4/6 202/4/6
f 198/4/6 199/4/6 203/4/6
f 202/3/6 198/3/6 203/3/6
f 203/4/6 199/4/6 204/4/6
