# MagicaVoxel @ Ephtracy

# material
mtllib stage0.mtl
usemtl palette

# normals
vn -1 0 0
vn 1 0 0
vn 0 0 1
vn 0 0 -1
vn 0 -1 0
vn 0 1 0

# texcoords
vt 0.0175781 0.5
vt 0.0488281 0.5
vt 0.865234 0.5

# verts
v -7 4 0.5
v -7 4 -0.5
v -7 6 0.5
v -7 6 -0.5
v -7 10 0.5
v -7 10 -0.5
v -7 11 0.5
v -7 11 -0.5
v -6 3 0.5
v -6 3 -0.5
v -6 4 0.5
v -6 4 -0.5
v -6 11 0.5
v -6 11 -0.5
v -6 12 0.5
v -6 12 -0.5
v -5 2 0.5
v -5 2 -0.5
v -5 3 0.5
v -5 3 -0.5
v -5 12 0.5
v -5 12 -0.5
v -5 13 0.5
v -5 13 -0.5
v -5 14 0.5
v -5 14 -0.5
v -4 1 0.5
v -4 1 -0.5
v -4 2 0.5
v -4 2 -0.5
v -4 14 0.5
v -4 14 -0.5
v -4 15 0.5
v -4 15 -0.5
v -3 0 0.5
v -3 0 -0.5
v -3 1 0.5
v -3 1 -0.5
v -3 15 0.5
v -3 15 -0.5
v -3 16 0.5
v -3 16 -0.5
v -2 16 0.5
v -2 16 -0.5
v -2 17 0.5
v -2 17 -0.5
v 2 16 0.5
v 2 16 -0.5
v 2 17 0.5
v 2 17 -0.5
v 3 0 0.5
v 3 0 -0.5
v 3 1 0.5
v 3 1 -0.5
v 3 15 0.5
v 3 15 -0.5
v 3 16 0.5
v 3 16 -0.5
v 4 1 0.5
v 4 1 -0.5
v 4 2 0.5
v 4 2 -0.5
v 4 14 0.5
v 4 14 -0.5
v 4 15 0.5
v 4 15 -0.5
v 5 2 0.5
v 5 2 -0.5
v 5 3 0.5
v 5 3 -0.5
v 5 12 0.5
v 5 12 -0.5
v 5 13 0.5
v 5 13 -0.5
v 5 14 0.5
v 5 14 -0.5
v 6 3 0.5
v 6 3 -0.5
v 6 4 0.5
v 6 4 -0.5
v 6 11 0.5
v 6 11 -0.5
v 6 12 0.5
v 6 12 -0.5
v 7 4 0.5
v 7 4 -0.5
v 7 6 0.5
v 7 6 -0.5
v 7 10 0.5
v 7 10 -0.5
v 7 11 0.5
v 7 11 -0.5
v -7 4 0.5
v -7 6 0.5
v -7 10 0.5
v -7 11 0.5
v -6 3 0.5
v -6 4 0.5
v -6 6 0.5
v -6 10 0.5
v -6 11 0.5
v -6 12 0.5
v -5 2 0.5
v -5 3 0.5
v -5 4 0.5
v -5 8 0.5
v -5 9 0.5
v -5 12 0.5
v -5 13 0.5
v -5 14 0.5
v -4 1 0.5
v -4 2 0.5
v -4 4 0.5
v -4 5 0.5
v -4 9 0.5
v -4 10 0.5
v -4 13 0.5
v -4 14 0.5
v -4 15 0.5
v -3 0 0.5
v -3 1 0.5
v -3 2 0.5
v -3 5 0.5
v -3 6 0.5
v -3 8 0.5
v -3 9 0.5
v -3 10 0.5
v -3 11 0.5
v -3 15 0.5
v -3 16 0.5
v -2 4 0.5
v -2 5 0.5
v -2 6 0.5
v -2 7 0.5
v -2 9 0.5
v -2 10 0.5
v -2 11 0.5
v -2 12 0.5
v -2 15 0.5
v -2 16 0.5
v -2 17 0.5
v -1 5 0.5
v -1 6 0.5
v -1 10 0.5
v -1 11 0.5
v -1 12 0.5
v -1 13 0.5
v 0 2 0.5
v 0 3 0.5
v 0 7 0.5
v 0 8 0.5
v 0 11 0.5
v 0 12 0.5
v 1 3 0.5
v 1 4 0.5
v 1 6 0.5
v 1 7 0.5
v 1 8 0.5
v 1 9 0.5
v 1 12 0.5
v 1 13 0.5
v 2 2 0.5
v 2 3 0.5
v 2 4 0.5
v 2 5 0.5
v 2 7 0.5
v 2 8 0.5
v 2 9 0.5
v 2 10 0.5
v 2 15 0.5
v 2 16 0.5
v 2 17 0.5
v 3 0 0.5
v 3 1 0.5
v 3 2 0.5
v 3 3 0.5
v 3 4 0.5
v 3 5 0.5
v 3 6 0.5
v 3 8 0.5
v 3 9 0.5
v 3 15 0.5
v 3 16 0.5
v 4 1 0.5
v 4 2 0.5
v 4 4 0.5
v 4 6 0.5
v 4 10 0.5
v 4 11 0.5
v 4 13 0.5
v 4 14 0.5
v 4 15 0.5
v 5 2 0.5
v 5 3 0.5
v 5 4 0.5
v 5 9 0.5
v 5 11 0.5
v 5 12 0.5
v 5 13 0.5
v 5 14 0.5
v 6 3 0.5
v 6 4 0.5
v 6 6 0.5
v 6 10 0.5
v 6 11 0.5
v 6 12 0.5
v 7 4 0.5
v 7 6 0.5
v 7 10 0.5
v 7 11 0.5
v -7 4 -0.5
v -7 6 -0.5
v -7 10 -0.5
v -7 11 -0.5
v -6 3 -0.5
v -6 4 -0.5
v -6 6 -0.5
v -6 10 -0.5
v -6 11 -0.5
v -6 12 -0.5
v -5 2 -0.5
v -5 3 -0.5
v -5 4 -0.5
v -5 8 -0.5
v -5 9 -0.5
v -5 12 -0.5
v -5 13 -0.5
v -5 14 -0.5
v -4 1 -0.5
v -4 2 -0.5
v -4 4 -0.5
v -4 5 -0.5
v -4 9 -0.5
v -4 10 -0.5
v -4 13 -0.5
v -4 14 -0.5
v -4 15 -0.5
v -3 0 -0.5
v -3 1 -0.5
v -3 2 -0.5
v -3 5 -0.5
v -3 6 -0.5
v -3 8 -0.5
v -3 9 -0.5
v -3 10 -0.5
v -3 11 -0.5
v -3 15 -0.5
v -3 16 -0.5
v -2 4 -0.5
v -2 5 -0.5
v -2 6 -0.5
v -2 7 -0.5
v -2 9 -0.5
v -2 10 -0.5
v -2 11 -0.5
v -2 12 -0.5
v -2 15 -0.5
v -2 16 -0.5
v -2 17 -0.5
v -1 5 -0.5
v -1 6 -0.5
v -1 10 -0.5
v -1 11 -0.5
v -1 12 -0.5
v -1 13 -0.5
v 0 2 -0.5
v 0 3 -0.5
v 0 7 -0.5
v 0 8 -0.5
v 0 11 -0.5
v 0 12 -0.5
v 1 3 -0.5
v 1 4 -0.5
v 1 6 -0.5
v 1 7 -0.5
v 1 8 -0.5
v 1 9 -0.5
v 1 12 -0.5
v 1 13 -0.5
v 2 2 -0.5
v 2 3 -0.5
v 2 4 -0.5
v 2 5 -0.5
v 2 7 -0.5
v 2 8 -0.5
v 2 9 -0.5
v 2 10 -0.5
v 2 15 -0.5
v 2 16 -0.5
v 2 17 -0.5
v 3 0 -0.5
v 3 1 -0.5
v 3 2 -0.5
v 3 3 -0.5
v 3 4 -0.5
v 3 5 -0.5
v 3 6 -0.5
v 3 8 -0.5
v 3 9 -0.5
v 3 15 -0.5
v 3 16 -0.5
v 4 1 -0.5
v 4 2 -0.5
v 4 4 -0.5
v 4 6 -0.5
v 4 10 -0.5
v 4 11 -0.5
v 4 13 -0.5
v 4 14 -0.5
v 4 15 -0.5
v 5 2 -0.5
v 5 3 -0.5
v 5 4 -0.5
v 5 9 -0.5
v 5 11 -0.5
v 5 12 -0.5
v 5 13 -0.5
v 5 14 -0.5
v 6 3 -0.5
v 6 4 -0.5
v 6 6 -0.5
v 6 10 -0.5
v 6 11 -0.5
v 6 12 -0.5
v 7 4 -0.5
v 7 6 -0.5
v 7 10 -0.5
v 7 11 -0.5
v -3 0 0.5
v 3 0 0.5
v -3 0 -0.5
v 3 0 -0.5
v -4 1 0.5
v -3 1 0.5
v 3 1 0.5
v 4 1 0.5
v -4 1 -0.5
v -3 1 -0.5
v 3 1 -0.5
v 4 1 -0.5
v -5 2 0.5
v -4 2 0.5
v 4 2 0.5
v 5 2 0.5
v -5 2 -0.5
v -4 2 -0.5
v 4 2 -0.5
v 5 2 -0.5
v -6 3 0.5
v -5 3 0.5
v 5 3 0.5
v 6 3 0.5
v -6 3 -0.5
v -5 3 -0.5
v 5 3 -0.5
v 6 3 -0.5
v -7 4 0.5
v -6 4 0.5
v 6 4 0.5
v 7 4 0.5
v -7 4 -0.5
v -6 4 -0.5
v 6 4 -0.5
v 7 4 -0.5
v -7 11 0.5
v -6 11 0.5
v 6 11 0.5
v 7 11 0.5
v -7 11 -0.5
v -6 11 -0.5
v 6 11 -0.5
v 7 11 -0.5
v -6 12 0.5
v -5 12 0.5
v 5 12 0.5
v 6 12 0.5
v -6 12 -0.5
v -5 12 -0.5
v 5 12 -0.5
v 6 12 -0.5
v -5 14 0.5
v -4 14 0.5
v 4 14 0.5
v 5 14 0.5
v -5 14 -0.5
v -4 14 -0.5
v 4 14 -0.5
v 5 14 -0.5
v -4 15 0.5
v -3 15 0.5
v 3 15 0.5
v 4 15 0.5
v -4 15 -0.5
v -3 15 -0.5
v 3 15 -0.5
v 4 15 -0.5
v -3 16 0.5
v -2 16 0.5
v 2 16 0.5
v 3 16 0.5
v -3 16 -0.5
v -2 16 -0.5
v 2 16 -0.5
v 3 16 -0.5
v -2 17 0.5
v 2 17 0.5
v -2 17 -0.5
v 2 17 -0.5

# faces
f 3/1/1 2/1/1 1/1/1
f 4/1/1 2/1/1 3/1/1
f 5/2/1 4/2/1 3/2/1
f 6/2/1 4/2/1 5/2/1
f 7/1/1 6/1/1 5/1/1
f 8/1/1 6/1/1 7/1/1
f 11/1/1 10/1/1 9/1/1
f 12/1/1 10/1/1 11/1/1
f 15/2/1 14/2/1 13/2/1
f 16/2/1 14/2/1 15/2/1
f 19/2/1 18/2/1 17/2/1
f 20/2/1 18/2/1 19/2/1
f 23/2/1 22/2/1 21/2/1
f 24/2/1 22/2/1 23/2/1
f 25/1/1 24/1/1 23/1/1
f 26/1/1 24/1/1 25/1/1
f 29/1/1 28/1/1 27/1/1
f 30/1/1 28/1/1 29/1/1
f 33/2/1 32/2/1 31/2/1
f 34/2/1 32/2/1 33/2/1
f 37/1/1 36/1/1 35/1/1
f 38/1/1 36/1/1 37/1/1
f 41/1/1 40/1/1 39/1/1
f 42/1/1 40/1/1 41/1/1
f 45/1/1 44/1/1 43/1/1
f 46/1/1 44/1/1 45/1/1
f 47/1/2 48/1/2 49/1/2
f 49/1/2 48/1/2 50/1/2
f 51/1/2 52/1/2 53/1/2
f 53/1/2 52/1/2 54/1/2
f 55/1/2 56/1/2 57/1/2
f 57/1/2 56/1/2 58/1/2
f 59/1/2 60/1/2 61/1/2
f 61/1/2 60/1/2 62/1/2
f 63/2/2 64/2/2 65/2/2
f 65/2/2 64/2/2 66/2/2
f 67/2/2 68/2/2 69/2/2
f 69/2/2 68/2/2 70/2/2
f 71/2/2 72/2/2 73/2/2
f 73/2/2 72/2/2 74/2/2
f 73/1/2 74/1/2 75/1/2
f 75/1/2 74/1/2 76/1/2
f 77/1/2 78/1/2 79/1/2
f 79/1/2 78/1/2 80/1/2
f 81/2/2 82/2/2 83/2/2
f 83/2/2 82/2/2 84/2/2
f 85/1/2 86/1/2 87/1/2
f 87/1/2 86/1/2 88/1/2
f 87/2/2 88/2/2 89/2/2
f 89/2/2 88/2/2 90/2/2
f 89/1/2 90/1/2 91/1/2
f 91/1/2 90/1/2 92/1/2
f 98/1/3 94/1/3 93/1/3
f 99/2/3 95/2/3 94/2/3
f 99/1/3 94/1/3 98/1/3
f 100/1/3 96/1/3 95/1/3
f 100/2/3 95/2/3 99/2/3
f 101/1/3 96/1/3 100/1/3
f 104/1/3 98/1/3 97/1/3
f 105/2/3 99/2/3 98/2/3
f 105/2/3 102/2/3 101/2/3
f 105/1/3 98/1/3 104/1/3
f 105/2/3 100/2/3 99/2/3
f 105/2/3 101/2/3 100/2/3
f 106/2/3 102/2/3 105/2/3
f 107/2/3 102/2/3 106/2/3
f 108/2/3 102/2/3 107/2/3
f 112/2/3 104/2/3 103/2/3
f 112/2/3 105/2/3 104/2/3
f 112/2/3 106/2/3 105/2/3
f 113/2/3 106/2/3 112/2/3
f 114/2/3 106/2/3 113/2/3
f 115/2/3 109/2/3 108/2/3
f 115/2/3 108/2/3 107/2/3
f 115/3/3 107/3/3 106/3/3
f 116/2/3 109/2/3 115/2/3
f 117/1/3 110/1/3 109/1/3
f 117/2/3 109/2/3 116/2/3
f 118/1/3 110/1/3 117/1/3
f 121/1/3 112/1/3 111/1/3
f 122/2/3 113/2/3 112/2/3
f 122/1/3 112/1/3 121/1/3
f 123/2/3 106/2/3 114/2/3
f 123/3/3 114/3/3 113/3/3
f 124/2/3 106/2/3 123/2/3
f 125/3/3 116/3/3 115/3/3
f 125/2/3 106/2/3 124/2/3
f 125/3/3 115/3/3 106/3/3
f 126/3/3 116/3/3 125/3/3
f 127/2/3 119/2/3 118/2/3
f 127/3/3 116/3/3 126/3/3
f 127/2/3 117/2/3 116/2/3
f 127/2/3 118/2/3 117/2/3
f 128/2/3 119/2/3 127/2/3
f 129/2/3 119/2/3 128/2/3
f 131/3/3 124/3/3 123/3/3
f 131/2/3 113/2/3 122/2/3
f 131/2/3 122/2/3 121/2/3
f 131/3/3 123/3/3 113/3/3
f 132/3/3 124/3/3 131/3/3
f 133/2/3 126/2/3 125/2/3
f 133/3/3 124/3/3 132/3/3
f 133/2/3 125/2/3 124/2/3
f 134/2/3 126/2/3 133/2/3
f 135/3/3 128/3/3 127/3/3
f 135/2/3 126/2/3 134/2/3
f 135/3/3 127/3/3 126/3/3
f 136/3/3 128/3/3 135/3/3
f 137/2/3 129/2/3 128/2/3
f 137/3/3 128/3/3 136/3/3
f 138/2/3 129/2/3 137/2/3
f 139/1/3 130/1/3 129/1/3
f 139/2/3 129/2/3 138/2/3
f 140/1/3 130/1/3 139/1/3
f 142/3/3 134/3/3 133/3/3
f 142/2/3 132/2/3 131/2/3
f 142/3/3 133/3/3 132/3/3
f 143/3/3 134/3/3 142/3/3
f 144/3/3 138/3/3 137/3/3
f 144/2/3 136/2/3 135/2/3
f 144/2/3 135/2/3 134/2/3
f 144/3/3 137/3/3 136/3/3
f 145/3/3 138/3/3 144/3/3
f 146/2/3 140/2/3 139/2/3
f 146/3/3 138/3/3 145/3/3
f 146/2/3 139/2/3 138/2/3
f 147/2/3 140/2/3 146/2/3
f 148/2/3 143/2/3 142/2/3
f 148/2/3 131/2/3 121/2/3
f 148/2/3 142/2/3 131/2/3
f 149/2/3 143/2/3 148/2/3
f 150/3/3 134/3/3 143/3/3
f 150/2/3 145/2/3 144/2/3
f 150/2/3 144/2/3 134/2/3
f 151/2/3 145/2/3 150/2/3
f 152/3/3 147/3/3 146/3/3
f 152/2/3 145/2/3 151/2/3
f 152/3/3 146/3/3 145/3/3
f 153/3/3 147/3/3 152/3/3
f 154/2/3 143/2/3 149/2/3
f 154/3/3 149/3/3 148/3/3
f 155/2/3 143/2/3 154/2/3
f 156/3/3 151/3/3 150/3/3
f 156/2/3 143/2/3 155/2/3
f 156/3/3 150/3/3 143/3/3
f 157/3/3 151/3/3 156/3/3
f 158/2/3 153/2/3 152/2/3
f 158/3/3 151/3/3 157/3/3
f 158/2/3 152/2/3 151/2/3
f 159/2/3 153/2/3 158/2/3
f 160/3/3 147/3/3 153/3/3
f 160/2/3 153/2/3 159/2/3
f 161/2/3 140/2/3 147/2/3
f 161/3/3 147/3/3 160/3/3
f 162/2/3 148/2/3 121/2/3
f 162/3/3 155/3/3 154/3/3
f 162/3/3 154/3/3 148/3/3
f 163/3/3 155/3/3 162/3/3
f 164/2/3 157/2/3 156/2/3
f 164/3/3 155/3/3 163/3/3
f 164/2/3 156/2/3 155/2/3
f 165/2/3 157/2/3 164/2/3
f 166/3/3 159/3/3 158/3/3
f 166/2/3 157/2/3 165/2/3
f 166/3/3 158/3/3 157/3/3
f 167/3/3 159/3/3 166/3/3
f 168/2/3 160/2/3 159/2/3
f 168/3/3 159/3/3 167/3/3
f 168/2/3 161/2/3 160/2/3
f 169/2/3 161/2/3 168/2/3
f 170/2/3 140/2/3 161/2/3
f 170/2/3 161/2/3 169/2/3
f 171/1/3 141/1/3 140/1/3
f 171/2/3 140/2/3 170/2/3
f 172/1/3 141/1/3 171/1/3
f 173/1/3 121/1/3 120/1/3
f 174/2/3 163/2/3 162/2/3
f 174/1/3 121/1/3 173/1/3
f 174/2/3 162/2/3 121/2/3
f 175/2/3 163/2/3 174/2/3
f 176/3/3 165/3/3 164/3/3
f 176/2/3 163/2/3 175/2/3
f 176/3/3 164/3/3 163/3/3
f 177/3/3 165/3/3 176/3/3
f 178/2/3 167/2/3 166/2/3
f 178/3/3 165/3/3 177/3/3
f 178/2/3 166/2/3 165/2/3
f 179/2/3 167/2/3 178/2/3
f 180/3/3 169/3/3 168/3/3
f 180/2/3 167/2/3 179/2/3
f 180/3/3 168/3/3 167/3/3
f 181/3/3 169/3/3 180/3/3
f 182/2/3 170/2/3 169/2/3
f 182/1/3 171/1/3 170/1/3
f 183/1/3 171/1/3 182/1/3
f 184/1/3 175/1/3 174/1/3
f 185/2/3 177/2/3 176/2/3
f 185/1/3 175/1/3 184/1/3
f 185/2/3 176/2/3 175/2/3
f 186/3/3 179/3/3 178/3/3
f 186/2/3 177/2/3 185/2/3
f 186/3/3 178/3/3 177/3/3
f 187/2/3 180/2/3 179/2/3
f 187/3/3 179/3/3 186/3/3
f 187/2/3 181/2/3 180/2/3
f 188/3/3 169/3/3 181/3/3
f 188/2/3 182/2/3 169/2/3
f 189/2/3 182/2/3 188/2/3
f 190/2/3 182/2/3 189/2/3
f 191/2/3 182/2/3 190/2/3
f 192/2/3 182/2/3 191/2/3
f 193/2/3 186/2/3 185/2/3
f 193/2/3 187/2/3 186/2/3
f 194/2/3 187/2/3 193/2/3
f 195/2/3 187/2/3 194/2/3
f 196/2/3 181/2/3 187/2/3
f 196/2/3 187/2/3 195/2/3
f 196/3/3 188/3/3 181/3/3
f 196/3/3 189/3/3 188/3/3
f 197/2/3 190/2/3 189/2/3
f 197/3/3 189/3/3 196/3/3
f 198/2/3 190/2/3 197/2/3
f 199/1/3 191/1/3 190/1/3
f 199/2/3 190/2/3 198/2/3
f 200/1/3 191/1/3 199/1/3
f 201/1/3 195/1/3 194/1/3
f 202/2/3 198/2/3 197/2/3
f 202/1/3 195/1/3 201/1/3
f 202/2/3 196/2/3 195/2/3
f 202/2/3 197/2/3 196/2/3
f 203/2/3 198/2/3 202/2/3
f 204/2/3 198/2/3 203/2/3
f 205/2/3 198/2/3 204/2/3
f 206/2/3 198/2/3 205/2/3
f 207/1/3 203/1/3 202/1/3
f 208/2/3 204/2/3 203/2/3
f 208/1/3 203/1/3 207/1/3
f 209/1/3 205/1/3 204/1/3
f 209/2/3 204/2/3 208/2/3
f 210/1/3 205/1/3 209/1/3
f 211/1/4 212/1/4 216/1/4
f 212/2/4 213/2/4 217/2/4
f 216/1/4 212/1/4 217/1/4
f 213/1/4 214/1/4 218/1/4
f 217/2/4 213/2/4 218/2/4
f 218/1/4 214/1/4 219/1/4
f 215/1/4 216/1/4 222/1/4
f 216/2/4 217/2/4 223/2/4
f 219/2/4 220/2/4 223/2/4
f 222/1/4 216/1/4 223/1/4
f 217/2/4 218/2/4 223/2/4
f 218/2/4 219/2/4 223/2/4
f 223/2/4 220/2/4 224/2/4
f 224/2/4 220/2/4 225/2/4
f 225/2/4 220/2/4 226/2/4
f 221/2/4 222/2/4 230/2/4
f 222/2/4 223/2/4 230/2/4
f 223/2/4 224/2/4 230/2/4
f 230/2/4 224/2/4 231/2/4
f 231/2/4 224/2/4 232/2/4
f 226/2/4 227/2/4 233/2/4
f 225/2/4 226/2/4 233/2/4
f 224/3/4 225/3/4 233/3/4
f 233/2/4 227/2/4 234/2/4
f 227/1/4 228/1/4 235/1/4
f 234/2/4 227/2/4 235/2/4
f 235/1/4 228/1/4 236/1/4
f 229/1/4 230/1/4 239/1/4
f 230/2/4 231/2/4 240/2/4
f 239/1/4 230/1/4 240/1/4
f 232/2/4 224/2/4 241/2/4
f 231/3/4 232/3/4 241/3/4
f 241/2/4 224/2/4 242/2/4
f 233/3/4 234/3/4 243/3/4
f 242/2/4 224/2/4 243/2/4
f 224/3/4 233/3/4 243/3/4
f 243/3/4 234/3/4 244/3/4
f 236/2/4 237/2/4 245/2/4
f 244/3/4 234/3/4 245/3/4
f 234/2/4 235/2/4 245/2/4
f 235/2/4 236/2/4 245/2/4
f 245/2/4 237/2/4 246/2/4
f 246/2/4 237/2/4 247/2/4
f 241/3/4 242/3/4 249/3/4
f 240/2/4 231/2/4 249/2/4
f 239/2/4 240/2/4 249/2/4
f 231/3/4 241/3/4 249/3/4
f 249/3/4 242/3/4 250/3/4
f 243/2/4 244/2/4 251/2/4
f 250/3/4 242/3/4 251/3/4
f 242/2/4 243/2/4 251/2/4
f 251/2/4 244/2/4 252/2/4
f 245/3/4 246/3/4 253/3/4
f 252/2/4 244/2/4 253/2/4
f 244/3/4 245/3/4 253/3/4
f 253/3/4 246/3/4 254/3/4
f 246/2/4 247/2/4 255/2/4
f 254/3/4 246/3/4 255/3/4
f 255/2/4 247/2/4 256/2/4
f 247/1/4 248/1/4 257/1/4
f 256/2/4 247/2/4 257/2/4
f 257/1/4 248/1/4 258/1/4
f 251/3/4 252/3/4 260/3/4
f 249/2/4 250/2/4 260/2/4
f 250/3/4 251/3/4 260/3/4
f 260/3/4 252/3/4 261/3/4
f 255/3/4 256/3/4 262/3/4
f 253/2/4 254/2/4 262/2/4
f 252/2/4 253/2/4 262/2/4
f 254/3/4 255/3/4 262/3/4
f 262/3/4 256/3/4 263/3/4
f 257/2/4 258/2/4 264/2/4
f 263/3/4 256/3/4 264/3/4
f 256/2/4 257/2/4 264/2/4
f 264/2/4 258/2/4 265/2/4
f 260/2/4 261/2/4 266/2/4
f 239/2/4 249/2/4 266/2/4
f 249/2/4 260/2/4 266/2/4
f 266/2/4 261/2/4 267/2/4
f 261/3/4 252/3/4 268/3/4
f 262/2/4 263/2/4 268/2/4
f 252/2/4 262/2/4 268/2/4
f 268/2/4 263/2/4 269/2/4
f 264/3/4 265/3/4 270/3/4
f 269/2/4 263/2/4 270/2/4
f 263/3/4 264/3/4 270/3/4
f 270/3/4 265/3/4 271/3/4
f 267/2/4 261/2/4 272/2/4
f 266/3/4 267/3/4 272/3/4
f 272/2/4 261/2/4 273/2/4
f 268/3/4 269/3/4 274/3/4
f 273/2/4 261/2/4 274/2/4
f 261/3/4 268/3/4 274/3/4
f 274/3/4 269/3/4 275/3/4
f 270/2/4 271/2/4 276/2/4
f 275/3/4 269/3/4 276/3/4
f 269/2/4 270/2/4 276/2/4
f 276/2/4 271/2/4 277/2/4
f 271/3/4 265/3/4 278/3/4
f 277/2/4 271/2/4 278/2/4
f 265/2/4 258/2/4 279/2/4
f 278/3/4 265/3/4 279/3/4
f 239/2/4 266/2/4 280/2/4
f 272/3/4 273/3/4 280/3/4
f 266/3/4 272/3/4 280/3/4
f 280/3/4 273/3/4 281/3/4
f 274/2/4 275/2/4 282/2/4
f 281/3/4 273/3/4 282/3/4
f 273/2/4 274/2/4 282/2/4
f 282/2/4 275/2/4 283/2/4
f 276/3/4 277/3/4 284/3/4
f 283/2/4 275/2/4 284/2/4
f 275/3/4 276/3/4 284/3/4
f 284/3/4 277/3/4 285/3/4
f 277/2/4 278/2/4 286/2/4
f 285/3/4 277/3/4 286/3/4
f 278/2/4 279/2/4 286/2/4
f 286/2/4 279/2/4 287/2/4
f 279/2/4 258/2/4 288/2/4
f 287/2/4 279/2/4 288/2/4
f 258/1/4 259/1/4 289/1/4
f 288/2/4 258/2/4 289/2/4
f 289/1/4 259/1/4 290/1/4
f 238/1/4 239/1/4 291/1/4
f 280/2/4 281/2/4 292/2/4
f 291/1/4 239/1/4 292/1/4
f 239/2/4 280/2/4 292/2/4
f 292/2/4 281/2/4 293/2/4
f 282/3/4 283/3/4 294/3/4
f 293/2/4 281/2/4 294/2/4
f 281/3/4 282/3/4 294/3/4
f 294/3/4 283/3/4 295/3/4
f 284/2/4 285/2/4 296/2/4
f 295/3/4 283/3/4 296/3/4
f 283/2/4 284/2/4 296/2/4
f 296/2/4 285/2/4 297/2/4
f 286/3/4 287/3/4 298/3/4
f 297/2/4 285/2/4 298/2/4
f 285/3/4 286/3/4 298/3/4
f 298/3/4 287/3/4 299/3/4
f 287/2/4 288/2/4 300/2/4
f 288/1/4 289/1/4 300/1/4
f 300/1/4 289/1/4 301/1/4
f 292/1/4 293/1/4 302/1/4
f 294/2/4 295/2/4 303/2/4
f 302/1/4 293/1/4 303/1/4
f 293/2/4 294/2/4 303/2/4
f 296/3/4 297/3/4 304/3/4
f 303/2/4 295/2/4 304/2/4
f 295/3/4 296/3/4 304/3/4
f 297/2/4 298/2/4 305/2/4
f 304/3/4 297/3/4 305/3/4
f 298/2/4 299/2/4 305/2/4
f 299/3/4 287/3/4 306/3/4
f 287/2/4 300/2/4 306/2/4
f 306/2/4 300/2/4 307/2/4
f 307/2/4 300/2/4 308/2/4
f 308/2/4 300/2/4 309/2/4
f 309/2/4 300/2/4 310/2/4
f 303/2/4 304/2/4 311/2/4
f 304/2/4 305/2/4 311/2/4
f 311/2/4 305/2/4 312/2/4
f 312/2/4 305/2/4 313/2/4
f 305/2/4 299/2/4 314/2/4
f 313/2/4 305/2/4 314/2/4
f 299/3/4 306/3/4 314/3/4
f 306/3/4 307/3/4 314/3/4
f 307/2/4 308/2/4 315/2/4
f 314/3/4 307/3/4 315/3/4
f 315/2/4 308/2/4 316/2/4
f 308/1/4 309/1/4 317/1/4
f 316/2/4 308/2/4 317/2/4
f 317/1/4 309/1/4 318/1/4
f 312/1/4 313/1/4 319/1/4
f 315/2/4 316/2/4 320/2/4
f 319/1/4 313/1/4 320/1/4
f 313/2/4 314/2/4 320/2/4
f 314/2/4 315/2/4 320/2/4
f 320/2/4 316/2/4 321/2/4
f 321/2/4 316/2/4 322/2/4
f 322/2/4 316/2/4 323/2/4
f 323/2/4 316/2/4 324/2/4
f 320/1/4 321/1/4 325/1/4
f 321/2/4 322/2/4 326/2/4
f 325/1/4 321/1/4 326/1/4
f 322/1/4 323/1/4 327/1/4
f 326/2/4 322/2/4 327/2/4
f 327/1/4 323/1/4 328/1/4
f 331/1/5 330/1/5 329/1/5
f 332/1/5 330/1/5 331/1/5
f 337/1/5 334/1/5 333/1/5
f 338/1/5 334/1/5 337/1/5
f 339/1/5 336/1/5 335/1/5
f 340/1/5 336/1/5 339/1/5
f 345/2/5 342/2/5 341/2/5
f 346/2/5 342/2/5 345/2/5
f 347/2/5 344/2/5 343/2/5
f 348/2/5 344/2/5 347/2/5
f 353/1/5 350/1/5 349/1/5
f 354/1/5 350/1/5 353/1/5
f 355/1/5 352/1/5 351/1/5
f 356/1/5 352/1/5 355/1/5
f 361/1/5 358/1/5 357/1/5
f 362/1/5 358/1/5 361/1/5
f 363/1/5 360/1/5 359/1/5
f 364/1/5 360/1/5 363/1/5
f 365/1/6 366/1/6 369/1/6
f 369/1/6 366/1/6 370/1/6
f 367/1/6 368/1/6 371/1/6
f 371/1/6 368/1/6 372/1/6
f 373/2/6 374/2/6 377/2/6
f 377/2/6 374/2/6 378/2/6
f 375/2/6 376/2/6 379/2/6
f 379/2/6 376/2/6 380/2/6
f 381/1/6 382/1/6 385/1/6
f 385/1/6 382/1/6 386/1/6
f 383/1/6 384/1/6 387/1/6
f 387/1/6 384/1/6 388/1/6
f 389/2/6 390/2/6 393/2/6
f 393/2/6 390/2/6 394/2/6
f 391/2/6 392/2/6 395/2/6
f 395/2/6 392/2/6 396/2/6
f 397/1/6 398/1/6 401/1/6
f 401/1/6 398/1/6 402/1/6
f 399/1/6 400/1/6 403/1/6
f 403/1/6 400/1/6 404/1/6
f 405/1/6 406/1/6 407/1/6
f 407/1/6 406/1/6 408/1/6
